HIERARCHY
ROOT joint_Root
{
	OFFSET 0.0 0.0 0.0
	CHANNELS 6 Xposition Yposition Zposition Zrotation Xrotation Yrotation 
	JOINT Hips
	{
		OFFSET -0.726466 93.3139 -2.00062
		CHANNELS 6 Xposition Yposition Zposition Zrotation Xrotation Yrotation 
		JOINT Spine
		{
			OFFSET 15.7357 0.0 0.0
			CHANNELS 6 Xposition Yposition Zposition Zrotation Xrotation Yrotation 
			JOINT Chest
			{
				OFFSET 8.98455 -0.406207 0.0
				CHANNELS 6 Xposition Yposition Zposition Zrotation Xrotation Yrotation 
				JOINT Neck
				{
					OFFSET 16.3773 0.0 0.0
					CHANNELS 6 Xposition Yposition Zposition Zrotation Xrotation Yrotation 
					JOINT Head
					{
						OFFSET 6.45672 0.0 0.0
						CHANNELS 6 Xposition Yposition Zposition Zrotation Xrotation Yrotation 
						End Site
						{
							OFFSET 0.0 0.0 0.0
						}
					}
				}
				JOINT Shoulder_L
				{
					OFFSET 12.9942 -0.242716 4.98039
					CHANNELS 6 Xposition Yposition Zposition Zrotation Xrotation Yrotation 
					JOINT UpperArm_L
					{
						OFFSET 5.34809 0.0 0.0
						CHANNELS 6 Xposition Yposition Zposition Zrotation Xrotation Yrotation 
						JOINT LowerArm_L
						{
							OFFSET 24.3286 1.87007e-05 0.0
							CHANNELS 6 Xposition Yposition Zposition Zrotation Xrotation Yrotation 
							JOINT Hand_L
							{
								OFFSET 22.2916 0.0 0.0
								CHANNELS 6 Xposition Yposition Zposition Zrotation Xrotation Yrotation 
								End Site
								{
									OFFSET 0.0 0.0 0.0
								}
							}
						}
					}
				}
				JOINT Shoulder_R
				{
					OFFSET 12.9945 -0.242716 -4.98039
					CHANNELS 6 Xposition Yposition Zposition Zrotation Xrotation Yrotation 
					JOINT UpperArm_R
					{
						OFFSET -5.34813 0.0 0.0
						CHANNELS 6 Xposition Yposition Zposition Zrotation Xrotation Yrotation 
						JOINT LowerArm_R
						{
							OFFSET -24.3289 0.000322201 0.0
							CHANNELS 6 Xposition Yposition Zposition Zrotation Xrotation Yrotation 
							JOINT Hand_R
							{
								OFFSET -22.2915 -0.000108084 0.0
								CHANNELS 6 Xposition Yposition Zposition Zrotation Xrotation Yrotation 
								End Site
								{
									OFFSET 0.0 0.0 0.0
								}
							}
						}
					}
				}
			}
		}
		JOINT UpperLeg_L
		{
			OFFSET -2.19248 -6.46944 0.0
			CHANNELS 6 Xposition Yposition Zposition Zrotation Xrotation Yrotation 
			JOINT LowerLeg_L
			{
				OFFSET 39.0811 0.0 -1.23785e-05
				CHANNELS 6 Xposition Yposition Zposition Zrotation Xrotation Yrotation 
				JOINT Foot_L
				{
					OFFSET 40.9854 0.0 -1.26872e-05
					CHANNELS 6 Xposition Yposition Zposition Zrotation Xrotation Yrotation 
					JOINT Toes_L
					{
						OFFSET 11.7543 0.0 0.0
						CHANNELS 6 Xposition Yposition Zposition Zrotation Xrotation Yrotation 
						End Site
						{
							OFFSET 0.0 0.0 0.0
						}
					}
				}
			}
		}
		JOINT UpperLeg_R
		{
			OFFSET -2.19251 6.46944 0.0
			CHANNELS 6 Xposition Yposition Zposition Zrotation Xrotation Yrotation 
			JOINT LowerLeg_R
			{
				OFFSET -39.0811 -0.00228153 -0.0401928
				CHANNELS 6 Xposition Yposition Zposition Zrotation Xrotation Yrotation 
				JOINT Foot_R
				{
					OFFSET -40.9854 0.0 0.0
					CHANNELS 6 Xposition Yposition Zposition Zrotation Xrotation Yrotation 
					JOINT Toes_R
					{
						OFFSET -11.7543 0.0 0.0
						CHANNELS 6 Xposition Yposition Zposition Zrotation Xrotation Yrotation 
						End Site
						{
							OFFSET 0.0 0.0 0.0
						}
					}
				}
			}
		}
	}
}
MOTION
Frames:	4
Frame Time:	0.0333333
0.000000 0.000000 0.000000 0.000000 0.000000 -0.000000 -0.658151 91.904100 -0.111597 87.719700 -1.501830 2.974490 15.735700 0.000005 -0.000001 88.463600 85.527800 -87.965600 8.984550 -0.406207 -0.000000 1.176550 -0.268347 0.997774 16.377300 -0.000001 -0.000001 2.596180 -2.979620 1.392040 6.456720 -0.000001 -0.000000 3.389210 -2.181590 -2.838540 12.994200 -0.242716 4.980390 -89.792000 -0.663615 -72.592700 5.348090 -0.000007 -0.000001 -65.408300 40.319700 -17.397000 24.328600 0.000019 0.000005 1.653460 3.880490 -23.099900 22.291600 -0.000001 0.000005 4.763300 5.473390 -5.497950 12.994500 -0.242716 -4.980390 88.066700 5.718570 -71.285300 -5.348130 -0.000001 -0.000004 -64.280100 38.037800 -17.024500 -24.328900 0.000322 -0.000009 1.562340 4.671680 -18.526500 -22.291500 -0.000108 -0.000004 6.450800 5.418310 -3.542310 -2.192480 -6.469440 -0.000000 -169.259000 -14.654100 -1.742800 39.081100 -0.000007 -0.000012 -0.202549 0.502440 21.956100 40.985400 -0.000006 -0.000013 -5.877150 2.863750 -65.514600 11.754300 -0.000000 0.000003 -0.000050 -0.000567 -16.599600 -2.192510 6.469440 -0.000001 173.891000 20.150300 -179.564000 -39.081100 -0.002282 -0.040193 -0.071696 0.220120 18.819700 -40.985400 0.000008 0.000006 -4.470210 3.533310 -63.966000 -11.754300 -0.000006 -0.000006 -0.004861 -0.060116 -19.019000
0.000000 0.000000 0.000000 0.000000 0.000000 -0.000000 -0.640816 91.910000 -0.124751 87.720700 -1.576670 2.996310 15.735700 0.000005 -0.000001 88.498000 85.515900 -87.978200 8.984550 -0.406207 -0.000000 1.200590 -0.264739 1.041600 16.377300 -0.000001 -0.000001 2.405890 -2.809990 1.314820 6.456720 -0.000001 -0.000000 3.223470 -1.988460 -2.825610 12.994200 -0.242716 4.980390 -89.731500 -0.852774 -72.521600 5.348090 -0.000007 -0.000001 -65.226900 40.570000 -17.760700 24.328600 0.000019 0.000005 2.033540 4.760340 -23.162400 22.291600 -0.000001 0.000005 5.004950 5.484090 -5.904130 12.994500 -0.242716 -4.980390 88.078600 5.657240 -71.205600 -5.348130 -0.000001 -0.000004 -63.804300 36.544700 -17.282800 -24.328900 0.000322 -0.000009 1.481840 4.296450 -19.062600 -22.291500 -0.000108 -0.000004 6.826820 5.418510 -3.548870 -2.192480 -6.469440 -0.000000 -169.274000 -14.626900 -1.696070 39.081100 -0.000007 -0.000012 -0.201053 0.499578 21.922400 40.985400 -0.000006 -0.000013 -5.877640 2.801700 -65.508700 11.754300 -0.000000 0.000003 -0.000048 -0.000546 -16.598800 -2.192510 6.469440 -0.000001 173.894000 20.107300 -179.574000 -39.081100 -0.002282 -0.040193 -0.067977 0.209088 18.829900 -40.985400 0.000008 0.000006 -4.361020 3.539390 -63.957900 -11.754300 -0.000006 -0.000006 -0.004998 -0.061445 -19.073100
0.000000 0.000000 0.000000 0.000000 0.000000 -0.000000 -0.612940 91.925000 -0.167720 87.711200 -1.688990 3.000840 15.735700 0.000005 -0.000001 88.354700 85.515500 -87.802000 8.984550 -0.406207 -0.000000 1.200860 -0.289064 1.107310 16.377300 -0.000001 -0.000001 2.239350 -2.598560 1.258110 6.456720 -0.000001 -0.000000 2.981610 -1.746420 -2.862390 12.994200 -0.242716 4.980390 -89.654700 -1.085710 -72.356100 5.348090 -0.000007 -0.000001 -64.976900 39.657100 -18.028800 24.328600 0.000019 0.000005 2.638700 6.040440 -23.651100 22.291600 -0.000001 0.000005 5.845710 5.498530 -6.467920 12.994500 -0.242716 -4.980390 88.096200 5.539450 -70.998800 -5.348130 -0.000001 -0.000004 -62.677900 34.239400 -18.167300 -24.328900 0.000322 -0.000009 1.400140 3.896770 -19.794800 -22.291500 -0.000108 -0.000004 7.465760 5.411680 -3.321850 -2.192480 -6.469440 -0.000000 -169.284000 -14.679900 -1.660530 39.081100 -0.000007 -0.000012 -0.200594 0.500059 21.858000 40.985400 -0.000006 -0.000013 -5.867780 2.739550 -65.468700 11.754300 -0.000000 0.000003 -0.000051 -0.000572 -16.599700 -2.192510 6.469440 -0.000001 173.940000 20.040600 -179.642000 -39.081100 -0.002282 -0.040193 -0.061859 0.190915 18.851100 -40.985400 0.000008 0.000006 -4.066040 3.508240 -63.945100 -11.754300 -0.000006 -0.000006 -0.004935 -0.060838 -19.048400
0.000000 0.000000 0.000000 0.000000 0.000000 -0.000000 -0.555126 91.931300 -0.257038 87.720100 -1.920070 2.934940 15.735700 0.000005 -0.000001 88.242800 85.543500 -87.661100 8.984550 -0.406207 -0.000000 1.144610 -0.306791 1.165450 16.377300 -0.000001 -0.000001 2.154940 -2.421890 1.234220 6.456720 -0.000001 -0.000000 2.630620 -1.465560 -2.927680 12.994200 -0.242716 4.980390 -89.587300 -1.278450 -72.106800 5.348090 -0.000007 -0.000001 -64.041900 37.346300 -18.776100 24.328600 0.000019 0.000005 2.758610 6.238900 -23.911300 22.291600 -0.000001 0.000005 6.807950 5.506840 -6.811030 12.994500 -0.242716 -4.980390 88.145500 5.329410 -70.781600 -5.348130 -0.000001 -0.000004 -60.626800 31.171000 -19.961300 -24.328900 0.000322 -0.000009 1.364810 3.638770 -20.590800 -22.291500 -0.000108 -0.000004 8.373720 5.400770 -2.963440 -2.192480 -6.469440 -0.000000 -169.364000 -14.794600 -1.757020 39.081100 -0.000007 -0.000012 -0.198724 0.494370 21.899200 40.985400 -0.000006 -0.000013 -5.839520 2.607720 -65.469800 11.754300 -0.000000 0.000003 -0.000057 -0.000638 -16.602300 -2.192510 6.469440 -0.000001 173.939000 19.886900 -179.815000 -39.081100 -0.002282 -0.040193 -0.063739 0.196708 18.825400 -40.985400 0.000008 0.000006 -4.208640 3.616290 -63.814300 -11.754300 -0.000006 -0.000006 -0.004861 -0.060112 -19.018800
